<svg width="500" height="276" viewBox="0 0 500 276" fill="none" xmlns="http://www.w3.org/2000/svg">
<path d="M90.2998 26.3C106.1 9.7 127 0 151.7 0C199.7 0 231.5 35 237.6 87.5C239.6 104.6 239.6 128.6 239.5 156.4V269.4H173.5V192.3C173.5 192.3 173.4 126.3 173 113.9C171.2 60.2 139.4 26.4 90.2998 26.3C75.3998 42.1 67.4998 61.2 66.2998 90.5C66.0998 94.6 66.1998 109.1 66.1998 128.1C66.1998 138 66.2998 149.1 66.2998 160.7V269.5H0.299842V150.8C0.299842 146.7 0.199842 142.6 0.199842 138.5C0.0998425 130.2 -0.100158 121.9 0.299842 113.6C0.999842 99.8 3.39984 86.2 9.89984 73.6C24.5998 44.8 54.7998 26.2 86.8998 26.2C87.9998 26.2 89.0998 26.3 90.2998 26.3V26.3Z" fill="#820AD1"/>
<path d="M499.7 162.3C500.1 154 500 145.7 499.8 137.4C499.7 133.3 499.7 129.2 499.7 125.1V6.40005H433.7V115.2C433.7 126.8 433.7 137.9 433.8 147.8C433.9 166.9 433.9 181.4 433.7 185.4C432.5 214.7 424.6 233.8 409.8 249.5C360.7 249.5 328.8 215.7 327.1 162C326.7 149.7 326.5 119 326.5 83.6V6.30005L260.5 6.40005V119.4C260.5 147.2 260.5 171.3 262.4 188.3C268.5 240.8 300.3 275.8 348.3 275.8C372.9 275.8 393.9 266.1 409.7 249.5C410.8 249.5 411.9 249.6 413.1 249.6C445.3 249.6 475.4 231 490.1 202.2C496.6 189.6 499 176.1 499.7 162.3V162.3Z" fill="#820AD1"/>
</svg>
